<svg width="42" height="45" viewBox="0 0 42 45" fill="none" xmlns="http://www.w3.org/2000/svg">
<path d="M41.25 0.75L23.25 21.0271M15.2535 20.0371C9.6735 22.3081 5.21175 21.9193 0.75 20.0443C1.875 35.4143 8.634 41.3233 17.6452 43.6898C17.6452 43.6898 24.4335 38.599 25.4123 26.5306C25.518 25.2233 25.5698 24.572 25.3155 23.8349C25.059 23.0978 24.555 22.5706 23.5493 21.5138C21.8933 19.7771 21.0675 18.9087 20.0843 18.6893C19.101 18.4746 17.8185 18.9946 15.2535 20.0371Z" stroke="#F1C30C" stroke-width="1.5" stroke-linecap="round" stroke-linejoin="round"/>
<path d="M4.125 32.826C4.125 32.826 9.75 33.9806 15.375 29.3765" stroke="#F1C30C" stroke-width="1.5" stroke-linecap="round" stroke-linejoin="round"/>
<path d="M13.125 10.8887C13.125 11.6795 12.8287 12.438 12.3012 12.9972C11.7738 13.5564 11.0584 13.8706 10.3125 13.8706C9.56658 13.8706 8.85121 13.5564 8.32376 12.9972C7.79632 12.438 7.5 11.6795 7.5 10.8887C7.5 10.0978 7.79632 9.33934 8.32376 8.78012C8.85121 8.2209 9.56658 7.90674 10.3125 7.90674C11.0584 7.90674 11.7738 8.2209 12.3012 8.78012C12.8287 9.33934 13.125 10.0978 13.125 10.8887Z" stroke="#F1C30C" stroke-width="1.5"/>
<path d="M18.75 3.1355V3.37405" stroke="#F1C30C" stroke-width="2" stroke-linecap="round" stroke-linejoin="round"/>
</svg>
