<svg width="45" height="45" viewBox="0 0 45 45" fill="none" xmlns="http://www.w3.org/2000/svg">
<path d="M22.0833 0C19.1833 0 16.3117 0.571202 13.6324 1.68099C10.9531 2.79079 8.51869 4.41743 6.46806 6.46806C2.32663 10.6095 0 16.2265 0 22.0833C0 27.9402 2.32663 33.5572 6.46806 37.6986C8.51869 39.7492 10.9531 41.3759 13.6324 42.4857C16.3117 43.5955 19.1833 44.1667 22.0833 44.1667C27.9402 44.1667 33.5572 41.84 37.6986 37.6986C41.84 33.5572 44.1667 27.9402 44.1667 22.0833C44.1667 19.1833 43.5955 16.3117 42.4857 13.6324C41.3759 10.9531 39.7492 8.51869 37.6986 6.46806C35.648 4.41743 33.2135 2.79079 30.5343 1.68099C27.855 0.571202 24.9834 0 22.0833 0ZM31.3583 31.3583L19.875 24.2917V11.0417H23.1875V22.525L33.125 28.4875L31.3583 31.3583Z" fill="#F1C30C"/>
</svg>
