<svg width="38" height="42" viewBox="0 0 38 42" fill="none" xmlns="http://www.w3.org/2000/svg">
<path fill-rule="evenodd" clip-rule="evenodd" d="M6.25 12.5C6.25 9.18479 7.56696 6.00537 9.91117 3.66117C12.2554 1.31696 15.4348 0 18.75 0C22.0652 0 25.2446 1.31696 27.5888 3.66117C29.933 6.00537 31.25 9.18479 31.25 12.5H33.3333C34.4384 12.5 35.4982 12.939 36.2796 13.7204C37.061 14.5018 37.5 15.5616 37.5 16.6667V37.5C37.5 38.6051 37.061 39.6649 36.2796 40.4463C35.4982 41.2277 34.4384 41.6667 33.3333 41.6667H4.16667C3.0616 41.6667 2.00179 41.2277 1.22039 40.4463C0.438987 39.6649 0 38.6051 0 37.5V16.6667C0 15.5616 0.438987 14.5018 1.22039 13.7204C2.00179 12.939 3.0616 12.5 4.16667 12.5H6.25ZM18.75 4.16667C20.9601 4.16667 23.0798 5.04464 24.6426 6.60744C26.2054 8.17025 27.0833 10.2899 27.0833 12.5H10.4167C10.4167 10.2899 11.2946 8.17025 12.8574 6.60744C14.4202 5.04464 16.5399 4.16667 18.75 4.16667ZM22.9167 25C22.9166 25.7314 22.7241 26.4499 22.3584 27.0833C21.9927 27.7167 21.4667 28.2426 20.8333 28.6083V31.25C20.8333 31.8025 20.6138 32.3324 20.2231 32.7231C19.8324 33.1138 19.3025 33.3333 18.75 33.3333C18.1975 33.3333 17.6676 33.1138 17.2769 32.7231C16.8862 32.3324 16.6667 31.8025 16.6667 31.25V28.6083C15.8724 28.1497 15.2516 27.4418 14.9006 26.5944C14.5497 25.747 14.4881 24.8075 14.7255 23.9216C14.9629 23.0356 15.486 22.2528 16.2136 21.6944C16.9413 21.136 17.8328 20.8334 18.75 20.8333C19.8551 20.8333 20.9149 21.2723 21.6963 22.0537C22.4777 22.8351 22.9167 23.8949 22.9167 25Z" fill="#F1C30C"/>
</svg>
