<svg width="37" height="49" viewBox="0 0 37 49" fill="none" xmlns="http://www.w3.org/2000/svg">
<path d="M11.9233 16.3212H24.1733C24.7148 16.3212 25.2341 16.1061 25.617 15.7232C25.9999 15.3403 26.215 14.821 26.215 14.2795C26.215 13.738 25.9999 13.2187 25.617 12.8358C25.2341 12.4529 24.7148 12.2378 24.1733 12.2378H11.9233C11.3819 12.2378 10.8625 12.4529 10.4797 12.8358C10.0968 13.2187 9.88167 13.738 9.88167 14.2795C9.88167 14.821 10.0968 15.3403 10.4797 15.7232C10.8625 16.1061 11.3819 16.3212 11.9233 16.3212ZM12.8829 9.17533C12.913 9.42432 13.0337 9.65353 13.222 9.81921C13.4103 9.9849 13.653 10.0755 13.9038 10.0737H22.1317C22.3812 10.0711 22.6216 9.97904 22.809 9.81415C22.9963 9.64927 23.1183 9.42256 23.1525 9.17533C23.6014 7.00512 24.4309 4.93148 25.6025 3.05033C25.7107 2.86784 25.7553 2.65465 25.7295 2.44409C25.7036 2.23353 25.6087 2.03748 25.4596 1.88658C25.3364 1.72438 25.1676 1.60272 24.9748 1.53723C24.782 1.47174 24.5739 1.46542 24.3775 1.51908L20.58 3.15242C20.5163 3.18316 20.4465 3.19912 20.3758 3.19912C20.3051 3.19912 20.2353 3.18316 20.1717 3.15242C20.045 3.10527 19.9422 3.00982 19.8858 2.887L18.9875 0.62075C18.9091 0.436603 18.7782 0.27958 18.6112 0.169212C18.4442 0.0588434 18.2485 0 18.0483 0C17.8482 0 17.6524 0.0588434 17.4854 0.169212C17.3185 0.27958 17.1876 0.436603 17.1092 0.62075L16.2108 2.887C16.1545 3.00982 16.0517 3.10527 15.925 3.15242C15.8613 3.18316 15.7915 3.19912 15.7208 3.19912C15.6501 3.19912 15.5803 3.18316 15.5167 3.15242L11.7192 1.51908C11.5244 1.44032 11.3102 1.42354 11.1055 1.47104C10.9009 1.51854 10.7159 1.628 10.5758 1.7845C10.4267 1.9354 10.3318 2.13145 10.306 2.34201C10.2801 2.55257 10.3248 2.76576 10.4329 2.94825C11.6157 4.86057 12.4456 6.96973 12.8829 9.17533ZM25.0717 18.6078C24.8611 18.4461 24.6022 18.3598 24.3367 18.3628H11.76C11.4945 18.3598 11.2356 18.4461 11.025 18.6078C5.81875 22.6912 0 29.6328 0 35.7578C0 44.3941 4.81833 48.9878 18.0483 48.9878C31.2783 48.9878 36.0967 44.3941 36.0967 35.7578C36.0967 29.6328 30.2983 22.5891 25.0717 18.6078ZM20.09 41.0866C19.971 41.1099 19.8635 41.1732 19.7855 41.2661C19.7075 41.359 19.6637 41.4757 19.6613 41.597V42.3524C19.6613 42.7585 19.4999 43.148 19.2128 43.4352C18.9256 43.7223 18.5361 43.8837 18.13 43.8837C17.7239 43.8837 17.3344 43.7223 17.0472 43.4352C16.7601 43.148 16.5988 42.7585 16.5988 42.3524V41.6991C16.5988 41.5637 16.545 41.4339 16.4493 41.3382C16.3535 41.2424 16.2237 41.1887 16.0883 41.1887H14.8838C14.4776 41.1887 14.0882 41.0273 13.801 40.7402C13.5138 40.453 13.3525 40.0635 13.3525 39.6574C13.3525 39.2513 13.5138 38.8618 13.801 38.5747C14.0882 38.2875 14.4776 38.1262 14.8838 38.1262H19.2733C19.5992 38.1374 19.9184 38.0318 20.1733 37.8286C20.4282 37.6253 20.6022 37.3376 20.6637 37.0174C20.7253 36.6972 20.6705 36.3655 20.5091 36.0822C20.3478 35.7988 20.0905 35.5824 19.7838 35.472L15.3329 33.6958C14.4359 33.3597 13.6726 32.7408 13.1586 31.9325C12.6445 31.1241 12.4076 30.1704 12.4837 29.2155C12.5599 28.2606 12.9448 27.3565 13.5804 26.6398C14.216 25.9231 15.0677 25.4329 16.0067 25.2432C16.1257 25.22 16.2331 25.1566 16.3112 25.0637C16.3892 24.9709 16.433 24.8541 16.4354 24.7328V23.9774C16.4354 23.5713 16.5967 23.1818 16.8839 22.8947C17.1711 22.6075 17.5606 22.4462 17.9667 22.4462C18.3728 22.4462 18.7623 22.6075 19.0494 22.8947C19.3366 23.1818 19.4979 23.5713 19.4979 23.9774V24.6307C19.4979 24.7661 19.5517 24.8959 19.6474 24.9917C19.7431 25.0874 19.873 25.1412 20.0083 25.1412H21.2129C21.619 25.1412 22.0085 25.3025 22.2957 25.5897C22.5828 25.8768 22.7442 26.2663 22.7442 26.6724C22.7442 27.0785 22.5828 27.468 22.2957 27.7552C22.0085 28.0423 21.619 28.2037 21.2129 28.2037H16.905C16.5791 28.1924 16.26 28.298 16.005 28.5013C15.7501 28.7046 15.5762 28.9922 15.5146 29.3124C15.453 29.6326 15.5079 29.9643 15.6692 30.2477C15.8305 30.531 16.0878 30.7474 16.3946 30.8578L20.8454 32.6341C21.7422 32.9769 22.5026 33.603 23.0112 34.4173C23.5197 35.2316 23.7487 36.1897 23.6632 37.1459C23.5777 38.1022 23.1826 39.0044 22.5376 39.7157C21.8927 40.4269 21.0334 40.9082 20.09 41.0866Z" fill="#F1C30C"/>
</svg>
